<svg width="40" height="40" viewBox="0 0 40 40" fill="none" xmlns="http://www.w3.org/2000/svg">
<rect width="40" height="40" rx="20" fill="#EEF0FD"/>
<path fill-rule="evenodd" clip-rule="evenodd" d="M20.0002 10.8333C20.3174 10.8333 20.6071 11.0133 20.7474 11.2977L23.1287 16.122L28.454 16.9003C28.7678 16.9462 29.0284 17.1662 29.1262 17.4679C29.224 17.7696 29.1421 18.1006 28.915 18.3219L25.0623 22.0744L25.9715 27.3757C26.0252 27.6884 25.8966 28.0044 25.64 28.1908C25.3833 28.3772 25.0431 28.4018 24.7623 28.2541L20.0002 25.7498L15.2381 28.2541C14.9573 28.4018 14.6171 28.3772 14.3604 28.1908C14.1038 28.0044 13.9752 27.6884 14.0288 27.3757L14.9381 22.0744L11.0854 18.3219C10.8582 18.1006 10.7763 17.7696 10.8741 17.4679C10.972 17.1662 11.2325 16.9462 11.5463 16.9003L16.8716 16.122L19.2529 11.2977C19.3933 11.0133 19.683 10.8333 20.0002 10.8333ZM20.0002 13.5493L18.1724 17.2521C18.0512 17.4978 17.8168 17.6682 17.5457 17.7078L13.4572 18.3054L16.415 21.1863C16.6115 21.3777 16.7012 21.6537 16.6549 21.9241L15.957 25.993L19.6123 24.0707C19.8551 23.943 20.1452 23.943 20.3881 24.0707L24.0434 25.993L23.3455 21.9241C23.2991 21.6537 23.3889 21.3777 23.5854 21.1863L26.5432 18.3054L22.4547 17.7078C22.1835 17.6682 21.9492 17.4978 21.8279 17.2521L20.0002 13.5493Z" fill="#3F4EC4"/>
<rect width="40" height="40" rx="20" stroke="white"/>
</svg>
